<mxfile host="app.diagrams.net" modified="2023-08-15T15:54:03.408Z" agent="Mozilla/5.0 (Windows NT 10.0; Win64; x64) AppleWebKit/537.36 (KHTML, like Gecko) Chrome/115.0.0.0 Safari/537.36" etag="HoczShgXicC0zk3lFpX8" version="21.6.8" type="github">
  <diagram name="Page-1" id="b520641d-4fe3-3701-9064-5fc419738815">
    <mxGraphModel dx="1313" dy="668" grid="1" gridSize="10" guides="1" tooltips="1" connect="1" arrows="1" fold="1" page="1" pageScale="1" pageWidth="1100" pageHeight="850" background="none" math="0" shadow="0">
      <root>
        <mxCell id="0" />
        <mxCell id="1" parent="0" />
        <mxCell id="WrTy3i7SK-XP-YhZIwpe-3" value="" style="group;fillColor=#e1d5e7;strokeColor=#9673a6;" vertex="1" connectable="0" parent="1">
          <mxGeometry x="120" y="240" width="100" height="50" as="geometry" />
        </mxCell>
        <mxCell id="WrTy3i7SK-XP-YhZIwpe-1" value="" style="html=1;dashed=0;whiteSpace=wrap;fillColor=#66B2FF;strokeColor=#FFFFFF;" vertex="1" parent="WrTy3i7SK-XP-YhZIwpe-3">
          <mxGeometry width="100" height="50" as="geometry" />
        </mxCell>
        <mxCell id="WrTy3i7SK-XP-YhZIwpe-2" value="&lt;font color=&quot;#ffffff&quot;&gt;User&lt;br&gt;&lt;/font&gt;" style="text;html=1;strokeColor=none;fillColor=none;align=center;verticalAlign=middle;whiteSpace=wrap;rounded=0;" vertex="1" parent="WrTy3i7SK-XP-YhZIwpe-3">
          <mxGeometry x="20" y="10" width="60" height="30" as="geometry" />
        </mxCell>
        <mxCell id="WrTy3i7SK-XP-YhZIwpe-6" value="" style="group" vertex="1" connectable="0" parent="1">
          <mxGeometry x="120" y="360" width="100" height="50" as="geometry" />
        </mxCell>
        <mxCell id="WrTy3i7SK-XP-YhZIwpe-7" value="" style="html=1;dashed=0;whiteSpace=wrap;fillColor=#66B2FF;strokeColor=#FFFFFF;" vertex="1" parent="WrTy3i7SK-XP-YhZIwpe-6">
          <mxGeometry width="100" height="50" as="geometry" />
        </mxCell>
        <mxCell id="WrTy3i7SK-XP-YhZIwpe-8" value="&lt;font color=&quot;#ffffff&quot;&gt;Mobile App&lt;br&gt;&lt;/font&gt;" style="text;html=1;strokeColor=none;fillColor=none;align=center;verticalAlign=middle;whiteSpace=wrap;rounded=0;" vertex="1" parent="WrTy3i7SK-XP-YhZIwpe-6">
          <mxGeometry x="20" y="10" width="60" height="30" as="geometry" />
        </mxCell>
        <mxCell id="WrTy3i7SK-XP-YhZIwpe-9" style="edgeStyle=orthogonalEdgeStyle;rounded=0;orthogonalLoop=1;jettySize=auto;html=1;exitX=0.5;exitY=1;exitDx=0;exitDy=0;entryX=0.5;entryY=0;entryDx=0;entryDy=0;" edge="1" parent="1" source="WrTy3i7SK-XP-YhZIwpe-1" target="WrTy3i7SK-XP-YhZIwpe-7">
          <mxGeometry relative="1" as="geometry" />
        </mxCell>
        <mxCell id="WrTy3i7SK-XP-YhZIwpe-10" value="User Upload Image" style="edgeLabel;html=1;align=center;verticalAlign=middle;resizable=0;points=[];" vertex="1" connectable="0" parent="WrTy3i7SK-XP-YhZIwpe-9">
          <mxGeometry x="-0.1143" y="-1" relative="1" as="geometry">
            <mxPoint as="offset" />
          </mxGeometry>
        </mxCell>
        <mxCell id="WrTy3i7SK-XP-YhZIwpe-13" value="" style="group" vertex="1" connectable="0" parent="1">
          <mxGeometry x="340" y="340" width="90" height="90" as="geometry" />
        </mxCell>
        <mxCell id="WrTy3i7SK-XP-YhZIwpe-11" value="" style="shape=ellipse;html=1;dashed=0;whiteSpace=wrap;perimeter=ellipsePerimeter;strokeColor=#FFFFFF;fillColor=#994C00;" vertex="1" parent="WrTy3i7SK-XP-YhZIwpe-13">
          <mxGeometry width="90" height="90" as="geometry" />
        </mxCell>
        <mxCell id="WrTy3i7SK-XP-YhZIwpe-12" value="&lt;font color=&quot;#ffffff&quot;&gt;Image&lt;br&gt;Post&lt;br&gt;to Server&lt;br&gt;&lt;/font&gt;" style="text;html=1;strokeColor=none;fillColor=none;align=center;verticalAlign=middle;whiteSpace=wrap;rounded=0;" vertex="1" parent="WrTy3i7SK-XP-YhZIwpe-13">
          <mxGeometry x="15" y="30" width="60" height="30" as="geometry" />
        </mxCell>
        <mxCell id="WrTy3i7SK-XP-YhZIwpe-15" style="edgeStyle=orthogonalEdgeStyle;rounded=0;orthogonalLoop=1;jettySize=auto;html=1;exitX=1;exitY=0.5;exitDx=0;exitDy=0;entryX=0;entryY=0.5;entryDx=0;entryDy=0;" edge="1" parent="1" source="WrTy3i7SK-XP-YhZIwpe-7" target="WrTy3i7SK-XP-YhZIwpe-11">
          <mxGeometry relative="1" as="geometry" />
        </mxCell>
        <mxCell id="WrTy3i7SK-XP-YhZIwpe-39" value="Post" style="edgeLabel;html=1;align=center;verticalAlign=middle;resizable=0;points=[];" vertex="1" connectable="0" parent="WrTy3i7SK-XP-YhZIwpe-15">
          <mxGeometry x="-0.1" y="1" relative="1" as="geometry">
            <mxPoint as="offset" />
          </mxGeometry>
        </mxCell>
        <mxCell id="WrTy3i7SK-XP-YhZIwpe-42" value="Request" style="edgeLabel;html=1;align=center;verticalAlign=middle;resizable=0;points=[];" vertex="1" connectable="0" parent="WrTy3i7SK-XP-YhZIwpe-15">
          <mxGeometry x="-0.0583" relative="1" as="geometry">
            <mxPoint as="offset" />
          </mxGeometry>
        </mxCell>
        <mxCell id="WrTy3i7SK-XP-YhZIwpe-17" value="" style="group" vertex="1" connectable="0" parent="1">
          <mxGeometry x="335" y="510" width="100" height="50" as="geometry" />
        </mxCell>
        <mxCell id="WrTy3i7SK-XP-YhZIwpe-18" value="" style="html=1;dashed=0;whiteSpace=wrap;fillColor=#66B2FF;strokeColor=#FFFFFF;" vertex="1" parent="WrTy3i7SK-XP-YhZIwpe-17">
          <mxGeometry width="100" height="50" as="geometry" />
        </mxCell>
        <mxCell id="WrTy3i7SK-XP-YhZIwpe-19" value="&lt;font color=&quot;#ffffff&quot;&gt;Server, API &amp;amp; Machine Learning&lt;br&gt;&lt;/font&gt;" style="text;html=1;strokeColor=none;fillColor=none;align=center;verticalAlign=middle;whiteSpace=wrap;rounded=0;" vertex="1" parent="WrTy3i7SK-XP-YhZIwpe-17">
          <mxGeometry x="10" y="10" width="70" height="30" as="geometry" />
        </mxCell>
        <mxCell id="WrTy3i7SK-XP-YhZIwpe-20" style="edgeStyle=orthogonalEdgeStyle;rounded=0;orthogonalLoop=1;jettySize=auto;html=1;exitX=0.5;exitY=1;exitDx=0;exitDy=0;entryX=0.5;entryY=0;entryDx=0;entryDy=0;" edge="1" parent="1" source="WrTy3i7SK-XP-YhZIwpe-11" target="WrTy3i7SK-XP-YhZIwpe-18">
          <mxGeometry relative="1" as="geometry" />
        </mxCell>
        <mxCell id="WrTy3i7SK-XP-YhZIwpe-40" value="Post" style="edgeLabel;html=1;align=center;verticalAlign=middle;resizable=0;points=[];" vertex="1" connectable="0" parent="WrTy3i7SK-XP-YhZIwpe-20">
          <mxGeometry x="0.0056" relative="1" as="geometry">
            <mxPoint as="offset" />
          </mxGeometry>
        </mxCell>
        <mxCell id="WrTy3i7SK-XP-YhZIwpe-21" value="" style="group" vertex="1" connectable="0" parent="1">
          <mxGeometry x="525" y="490" width="90" height="90" as="geometry" />
        </mxCell>
        <mxCell id="WrTy3i7SK-XP-YhZIwpe-34" style="edgeStyle=orthogonalEdgeStyle;rounded=0;orthogonalLoop=1;jettySize=auto;html=1;exitX=0.5;exitY=1;exitDx=0;exitDy=0;" edge="1" parent="WrTy3i7SK-XP-YhZIwpe-21" source="WrTy3i7SK-XP-YhZIwpe-22">
          <mxGeometry relative="1" as="geometry">
            <mxPoint x="44.5" y="170" as="targetPoint" />
          </mxGeometry>
        </mxCell>
        <mxCell id="WrTy3i7SK-XP-YhZIwpe-22" value="" style="shape=ellipse;html=1;dashed=0;whiteSpace=wrap;perimeter=ellipsePerimeter;strokeColor=#FFFFFF;fillColor=#994C00;" vertex="1" parent="WrTy3i7SK-XP-YhZIwpe-21">
          <mxGeometry width="90" height="90" as="geometry" />
        </mxCell>
        <mxCell id="WrTy3i7SK-XP-YhZIwpe-23" value="&lt;font color=&quot;#ffffff&quot;&gt;Model Process Data and Give output (Key)&lt;br&gt;&lt;/font&gt;" style="text;html=1;strokeColor=none;fillColor=none;align=center;verticalAlign=middle;whiteSpace=wrap;rounded=0;" vertex="1" parent="WrTy3i7SK-XP-YhZIwpe-21">
          <mxGeometry x="15" y="30" width="60" height="30" as="geometry" />
        </mxCell>
        <mxCell id="WrTy3i7SK-XP-YhZIwpe-24" style="edgeStyle=orthogonalEdgeStyle;rounded=0;orthogonalLoop=1;jettySize=auto;html=1;entryX=0;entryY=0.5;entryDx=0;entryDy=0;exitX=1;exitY=0.5;exitDx=0;exitDy=0;" edge="1" parent="1" source="WrTy3i7SK-XP-YhZIwpe-18" target="WrTy3i7SK-XP-YhZIwpe-22">
          <mxGeometry relative="1" as="geometry">
            <mxPoint x="570" y="410" as="sourcePoint" />
            <Array as="points">
              <mxPoint x="460" y="535" />
              <mxPoint x="460" y="535" />
            </Array>
          </mxGeometry>
        </mxCell>
        <mxCell id="WrTy3i7SK-XP-YhZIwpe-33" value="" style="group" vertex="1" connectable="0" parent="1">
          <mxGeometry x="500" y="660" width="140" height="50" as="geometry" />
        </mxCell>
        <mxCell id="WrTy3i7SK-XP-YhZIwpe-31" value="" style="html=1;dashed=0;whiteSpace=wrap;shape=mxgraph.dfd.dataStoreID;align=left;spacingLeft=3;points=[[0,0],[0.5,0],[1,0],[0,0.5],[1,0.5],[0,1],[0.5,1],[1,1]];fillColor=#808080;strokeColor=#FFFFFF;" vertex="1" parent="WrTy3i7SK-XP-YhZIwpe-33">
          <mxGeometry width="140" height="50" as="geometry" />
        </mxCell>
        <mxCell id="WrTy3i7SK-XP-YhZIwpe-30" value="&lt;font color=&quot;#ffffff&quot;&gt;Store Information Related to Disease &amp;amp; Solution&lt;/font&gt;" style="text;html=1;strokeColor=none;fillColor=none;align=center;verticalAlign=middle;whiteSpace=wrap;rounded=0;" vertex="1" parent="WrTy3i7SK-XP-YhZIwpe-33">
          <mxGeometry x="30" y="10" width="110" height="30" as="geometry" />
        </mxCell>
        <mxCell id="WrTy3i7SK-XP-YhZIwpe-35" value="" style="group" vertex="1" connectable="0" parent="1">
          <mxGeometry x="340" y="650" width="90" height="90" as="geometry" />
        </mxCell>
        <mxCell id="WrTy3i7SK-XP-YhZIwpe-36" value="" style="shape=ellipse;html=1;dashed=0;whiteSpace=wrap;perimeter=ellipsePerimeter;strokeColor=#FFFFFF;fillColor=#994C00;" vertex="1" parent="WrTy3i7SK-XP-YhZIwpe-35">
          <mxGeometry y="-6" width="90" height="90" as="geometry" />
        </mxCell>
        <mxCell id="WrTy3i7SK-XP-YhZIwpe-37" value="&lt;font color=&quot;#ffffff&quot;&gt;Generate the Result&lt;br&gt;&lt;/font&gt;" style="text;html=1;strokeColor=none;fillColor=none;align=center;verticalAlign=middle;whiteSpace=wrap;rounded=0;" vertex="1" parent="WrTy3i7SK-XP-YhZIwpe-35">
          <mxGeometry x="15" y="30" width="60" height="30" as="geometry" />
        </mxCell>
        <mxCell id="WrTy3i7SK-XP-YhZIwpe-45" style="edgeStyle=orthogonalEdgeStyle;rounded=0;orthogonalLoop=1;jettySize=auto;html=1;entryX=0;entryY=0.5;entryDx=0;entryDy=0;" edge="1" parent="1" target="WrTy3i7SK-XP-YhZIwpe-1">
          <mxGeometry relative="1" as="geometry">
            <mxPoint x="120" y="385" as="sourcePoint" />
            <Array as="points">
              <mxPoint x="80" y="385" />
              <mxPoint x="80" y="265" />
            </Array>
          </mxGeometry>
        </mxCell>
        <mxCell id="WrTy3i7SK-XP-YhZIwpe-46" value="User Got Info" style="edgeLabel;html=1;align=center;verticalAlign=middle;resizable=0;points=[];" vertex="1" connectable="0" parent="WrTy3i7SK-XP-YhZIwpe-45">
          <mxGeometry x="0.025" y="2" relative="1" as="geometry">
            <mxPoint as="offset" />
          </mxGeometry>
        </mxCell>
        <mxCell id="WrTy3i7SK-XP-YhZIwpe-49" style="edgeStyle=orthogonalEdgeStyle;rounded=0;orthogonalLoop=1;jettySize=auto;html=1;exitX=0.5;exitY=1;exitDx=0;exitDy=0;entryX=0.41;entryY=-0.02;entryDx=0;entryDy=0;entryPerimeter=0;" edge="1" parent="1" source="WrTy3i7SK-XP-YhZIwpe-48" target="WrTy3i7SK-XP-YhZIwpe-1">
          <mxGeometry relative="1" as="geometry" />
        </mxCell>
        <mxCell id="WrTy3i7SK-XP-YhZIwpe-50" value="" style="group" vertex="1" connectable="0" parent="1">
          <mxGeometry x="120" y="170" width="80" height="30" as="geometry" />
        </mxCell>
        <mxCell id="WrTy3i7SK-XP-YhZIwpe-47" value="" style="html=1;dashed=0;whiteSpace=wrap;shape=mxgraph.dfd.start;fillColor=#009900;strokeColor=#FFFFFF;" vertex="1" parent="WrTy3i7SK-XP-YhZIwpe-50">
          <mxGeometry width="80" height="30" as="geometry" />
        </mxCell>
        <mxCell id="WrTy3i7SK-XP-YhZIwpe-48" value="&lt;font color=&quot;#ffffff&quot;&gt;Start&lt;/font&gt;" style="text;html=1;strokeColor=none;fillColor=none;align=center;verticalAlign=middle;whiteSpace=wrap;rounded=0;" vertex="1" parent="WrTy3i7SK-XP-YhZIwpe-50">
          <mxGeometry x="20" width="40" height="30" as="geometry" />
        </mxCell>
        <mxCell id="WrTy3i7SK-XP-YhZIwpe-52" style="edgeStyle=orthogonalEdgeStyle;rounded=0;orthogonalLoop=1;jettySize=auto;html=1;exitX=0.5;exitY=0;exitDx=0;exitDy=0;entryX=0.5;entryY=1;entryDx=0;entryDy=0;" edge="1" parent="1" source="WrTy3i7SK-XP-YhZIwpe-36" target="WrTy3i7SK-XP-YhZIwpe-18">
          <mxGeometry relative="1" as="geometry" />
        </mxCell>
        <mxCell id="WrTy3i7SK-XP-YhZIwpe-53" value="Send Result to Server" style="edgeLabel;html=1;align=center;verticalAlign=middle;resizable=0;points=[];" vertex="1" connectable="0" parent="WrTy3i7SK-XP-YhZIwpe-52">
          <mxGeometry x="-0.1548" y="2" relative="1" as="geometry">
            <mxPoint as="offset" />
          </mxGeometry>
        </mxCell>
        <mxCell id="WrTy3i7SK-XP-YhZIwpe-38" style="edgeStyle=orthogonalEdgeStyle;rounded=0;orthogonalLoop=1;jettySize=auto;html=1;exitX=0;exitY=0.5;exitDx=0;exitDy=0;entryX=1;entryY=0.5;entryDx=0;entryDy=0;" edge="1" parent="1" source="WrTy3i7SK-XP-YhZIwpe-31" target="WrTy3i7SK-XP-YhZIwpe-36">
          <mxGeometry relative="1" as="geometry">
            <mxPoint x="420" y="690" as="targetPoint" />
            <Array as="points">
              <mxPoint x="500" y="690" />
              <mxPoint x="430" y="690" />
            </Array>
          </mxGeometry>
        </mxCell>
        <mxCell id="WrTy3i7SK-XP-YhZIwpe-54" style="edgeStyle=orthogonalEdgeStyle;rounded=0;orthogonalLoop=1;jettySize=auto;html=1;exitX=0;exitY=0.5;exitDx=0;exitDy=0;entryX=0.5;entryY=1;entryDx=0;entryDy=0;" edge="1" parent="1" source="WrTy3i7SK-XP-YhZIwpe-18" target="WrTy3i7SK-XP-YhZIwpe-7">
          <mxGeometry relative="1" as="geometry" />
        </mxCell>
        <mxCell id="WrTy3i7SK-XP-YhZIwpe-55" value="Server Response With Info" style="edgeLabel;html=1;align=center;verticalAlign=middle;resizable=0;points=[];" vertex="1" connectable="0" parent="WrTy3i7SK-XP-YhZIwpe-54">
          <mxGeometry x="-0.1914" y="-1" relative="1" as="geometry">
            <mxPoint x="33" y="1" as="offset" />
          </mxGeometry>
        </mxCell>
      </root>
    </mxGraphModel>
  </diagram>
</mxfile>
